<?xml version="1.0" standalone="no"?>
<!DOCTYPE svg PUBLIC "-//W3C//DTD SVG 20010904//EN"
 "http://www.w3.org/TR/2001/REC-SVG-20010904/DTD/svg10.dtd">
<svg version="1.0" xmlns="http://www.w3.org/2000/svg"
 width="4000.000000pt" height="4000.000000pt" viewBox="0 0 4000.000000 4000.000000"
 preserveAspectRatio="xMidYMid meet">
<metadata>
Created by potrace 1.14, written by Peter Selinger 2001-2017
</metadata>
<g transform="translate(0.000000,4000.000000) scale(0.100000,-0.100000)"
fill="#000000" stroke="none">
<path d="M19257 32554 c-1 -1 -99 -4 -217 -8 -118 -4 -228 -8 -245 -10 -16 -2
-64 -7 -105 -10 -155 -13 -446 -55 -560 -81 -14 -4 -38 -8 -55 -11 -16 -3 -48
-10 -70 -16 -22 -5 -51 -12 -65 -15 -114 -20 -504 -146 -645 -208 -22 -10 -49
-21 -60 -25 -11 -5 -87 -41 -170 -81 -234 -114 -430 -235 -650 -402 -163 -123
-451 -398 -584 -557 -35 -41 -72 -86 -83 -98 -93 -112 -350 -481 -379 -546 -7
-14 -15 -26 -19 -26 -4 0 -10 -8 -14 -17 -6 -18 -22 -47 -65 -116 -167 -269
-403 -818 -527 -1224 -65 -215 -158 -601 -179 -743 -2 -14 -8 -49 -14 -77 -6
-29 -13 -74 -16 -101 -3 -27 -8 -59 -10 -73 -3 -13 -8 -44 -11 -69 -3 -25 -7
-55 -9 -68 -2 -13 -7 -53 -10 -90 -4 -37 -8 -78 -11 -92 -2 -14 -7 -65 -10
-114 -3 -49 -7 -97 -9 -106 -2 -9 -7 -86 -11 -171 -11 -195 -11 -11641 -1
-11844 4 -82 10 -175 12 -205 8 -108 16 -205 20 -230 2 -14 6 -54 10 -90 3
-36 7 -78 9 -95 2 -16 7 -59 11 -95 4 -36 9 -74 11 -85 3 -11 7 -38 9 -60 10
-77 46 -281 71 -400 13 -66 26 -129 28 -140 9 -48 39 -174 52 -220 7 -27 15
-61 18 -75 13 -80 141 -489 206 -660 218 -578 574 -1120 1042 -1590 135 -136
266 -257 368 -341 36 -30 70 -59 75 -65 22 -25 256 -195 365 -266 477 -308
1011 -507 1630 -607 36 -6 76 -13 90 -15 14 -2 72 -9 130 -16 58 -6 121 -13
140 -15 214 -25 858 -26 1105 -1 17 2 66 7 110 11 44 4 88 9 97 10 9 2 41 6
70 9 29 4 62 8 73 10 11 2 43 7 70 10 28 4 57 9 65 11 8 2 31 7 50 10 31 5 54
9 155 29 120 24 391 98 485 131 25 9 52 18 61 20 37 8 315 122 434 179 304
145 638 367 875 582 308 278 597 640 812 1014 109 189 278 546 338 710 7 19
18 49 26 66 14 33 132 382 139 411 2 10 18 65 35 122 16 57 32 114 34 125 2
12 7 28 10 36 3 8 8 26 10 40 3 14 15 63 27 110 11 47 22 92 24 100 2 8 13 62
25 120 12 58 23 114 26 125 2 11 8 45 14 75 6 30 12 64 14 75 2 11 7 40 11 65
9 64 14 92 19 115 2 11 7 45 11 75 4 30 9 64 11 75 2 11 6 40 9 65 3 25 7 56
10 70 4 26 10 72 20 175 4 33 9 76 11 95 2 19 6 64 9 100 3 36 7 79 10 95 2
17 7 77 10 135 4 58 8 121 10 140 2 19 7 96 10 170 4 74 9 167 12 205 2 39 6
1212 7 2608 l3 2537 -2692 0 -2692 0 0 -1370 c0 -899 3 -1373 10 -1377 5 -3
596 -6 1313 -6 l1304 0 1 -36 c0 -20 1 -468 1 -996 0 -840 -5 -1284 -17 -1405
-1 -19 -6 -84 -9 -145 -4 -60 -8 -117 -11 -125 -2 -8 -6 -53 -10 -100 -4 -46
-8 -87 -10 -90 -1 -3 -6 -37 -9 -76 -4 -39 -8 -80 -10 -90 -2 -11 -7 -41 -10
-69 -4 -27 -16 -97 -26 -155 -11 -58 -21 -116 -24 -130 -2 -14 -9 -45 -15 -70
-5 -25 -12 -56 -14 -70 -28 -148 -141 -507 -209 -665 -46 -104 -156 -313 -209
-395 -99 -152 -263 -340 -370 -422 -17 -13 -52 -39 -77 -59 -181 -138 -486
-261 -731 -293 -232 -31 -514 -25 -721 14 -483 92 -840 330 -1102 735 -119
183 -240 443 -331 710 -39 115 -118 408 -131 490 -3 17 -12 68 -20 115 -28
152 -49 328 -63 525 -11 147 -10 11493 0 11615 5 52 10 113 13 135 2 22 6 58
9 80 24 235 91 550 166 790 38 120 114 327 137 371 5 11 41 84 81 164 114 232
195 361 315 502 61 71 211 215 260 247 221 149 329 202 538 261 169 48 332 68
553 65 152 -2 211 -6 295 -24 389 -82 657 -258 945 -622 26 -33 125 -187 125
-195 0 -4 7 -15 15 -24 24 -26 159 -306 208 -430 114 -289 218 -658 281 -1005
18 -97 31 -171 40 -232 11 -72 19 -119 21 -134 3 -14 27 -202 40 -309 8 -67
15 -135 20 -195 11 -125 16 -181 20 -215 2 -19 7 -87 11 -150 3 -63 8 -133 9
-155 4 -54 15 -323 20 -470 2 -66 5 -220 6 -342 1 -155 5 -223 13 -224 59 -4
2725 -1 2733 4 16 10 3 748 -22 1177 -15 266 -25 426 -31 480 -2 25 -6 72 -9
105 -3 33 -8 85 -10 115 -3 30 -8 80 -11 110 -2 30 -7 71 -9 90 -2 19 -7 60
-10 90 -3 30 -7 71 -10 90 -2 19 -7 59 -10 89 -4 30 -8 62 -10 71 -2 9 -6 41
-10 71 -4 30 -16 113 -27 184 -11 72 -22 146 -24 165 -3 19 -9 58 -14 85 -5
28 -12 66 -15 85 -3 19 -10 55 -15 80 -5 25 -11 59 -14 75 -2 17 -9 50 -15 75
-5 25 -12 60 -16 78 -25 146 -118 517 -190 762 -182 620 -444 1191 -743 1620
-44 63 -84 120 -89 125 -5 6 -27 35 -50 66 -23 31 -47 62 -55 70 -7 8 -26 30
-42 49 -108 132 -303 333 -426 440 -199 172 -347 280 -582 423 -112 69 -357
189 -506 249 -213 85 -549 188 -694 213 -18 3 -49 10 -68 15 -40 10 -332 57
-400 64 -106 10 -178 17 -215 21 -22 2 -123 7 -225 10 -102 4 -204 8 -228 9
-24 1 -44 1 -45 0z"/>
<path d="M2790 32180 c0 -44 0 -21367 0 -21513 l0 -108 2508 4 c1379 2 2530 6
2557 10 28 4 75 9 105 12 90 9 143 15 175 20 17 3 48 7 70 10 22 3 51 8 65 11
14 2 42 7 62 9 154 20 643 151 763 205 11 5 54 22 97 39 232 90 461 210 703
369 340 222 656 508 1040 942 54 61 246 302 290 364 11 16 29 40 41 55 30 37
211 314 249 380 108 188 146 258 198 363 170 346 267 601 381 995 49 170 131
490 142 553 3 14 11 57 20 95 33 156 66 331 79 425 4 24 8 47 10 50 2 3 6 30
10 60 3 30 8 66 10 80 2 14 7 43 9 65 3 22 10 74 16 115 12 86 19 141 35 295
6 58 15 160 20 225 20 274 23 318 31 560 8 257 8 9139 0 9430 -9 288 -14 404
-31 635 -10 134 -32 373 -41 440 -3 22 -7 58 -10 80 -2 22 -9 76 -15 120 -6
44 -12 91 -14 105 -3 22 -41 261 -50 315 -23 140 -84 423 -138 640 -68 272
-197 658 -302 905 -264 618 -573 1085 -985 1492 -167 165 -191 187 -320 289
-271 216 -593 405 -910 535 -74 30 -144 59 -155 64 -11 5 -38 14 -60 21 -22 6
-49 15 -60 20 -24 10 -213 68 -241 74 -10 2 -62 15 -114 28 -162 42 -463 97
-615 112 -33 3 -76 8 -95 10 -35 5 -116 11 -270 22 -47 3 -1249 6 -2672 7
l-2588 1 0 -35z m5115 -2711 c6 -4 35 -10 65 -13 30 -4 89 -16 132 -27 559
-142 986 -582 1276 -1314 69 -176 175 -532 195 -660 3 -16 8 -41 11 -55 3 -14
8 -36 10 -50 3 -14 9 -50 15 -80 6 -30 13 -73 16 -95 3 -23 7 -52 10 -65 7
-37 24 -169 30 -235 3 -33 8 -74 10 -91 2 -17 7 -68 11 -115 3 -46 8 -104 10
-129 14 -188 17 -933 17 -4910 0 -3957 -2 -4747 -18 -4900 -2 -19 -6 -73 -10
-120 -3 -47 -8 -96 -10 -110 -2 -14 -7 -59 -10 -100 -4 -41 -9 -84 -11 -94 -2
-11 -6 -40 -9 -65 -3 -25 -7 -57 -9 -71 -3 -14 -7 -43 -11 -65 -5 -38 -28
-173 -41 -240 -52 -286 -175 -722 -275 -975 -18 -47 -34 -87 -34 -90 -8 -32
-136 -311 -178 -390 -22 -41 -49 -91 -59 -110 -23 -43 -27 -51 -107 -170 -202
-301 -457 -527 -742 -658 -146 -67 -256 -101 -435 -134 -117 -21 -137 -22
-1166 -24 l-1048 -2 0 8083 0 8082 1178 -1 c647 -1 1182 -4 1187 -7z"/>
<path d="M25960 32212 c-7 -3 -10 -3571 -10 -10828 l0 -10824 68 0 c100 -1
2504 -1 2594 0 l78 0 2 4146 3 4147 75 -119 c41 -65 80 -126 85 -136 6 -10 62
-99 125 -198 63 -100 120 -189 125 -198 12 -21 130 -209 190 -302 23 -36 142
-225 265 -420 122 -195 237 -377 255 -405 17 -27 60 -95 95 -150 34 -55 77
-122 95 -150 37 -59 427 -678 500 -795 47 -76 327 -520 403 -640 19 -30 45
-71 57 -90 287 -452 425 -673 425 -681 0 -5 3 -9 8 -9 4 0 12 -10 18 -23 10
-20 195 -316 249 -397 22 -34 511 -809 605 -960 26 -41 145 -230 265 -420 120
-190 246 -390 280 -445 34 -55 73 -116 86 -137 13 -20 43 -67 67 -105 58 -93
260 -415 272 -433 54 -82 122 -189 130 -205 5 -11 39 -65 74 -120 35 -55 131
-206 212 -335 81 -129 174 -277 207 -327 l59 -93 1699 0 1699 0 -20 37 c-11
21 -39 68 -62 105 -79 124 -363 580 -378 607 -8 14 -94 152 -190 306 -96 154
-179 288 -185 297 -5 10 -41 68 -80 130 -38 61 -79 126 -90 144 -11 19 -57 93
-103 166 -46 73 -87 140 -92 148 -5 8 -42 67 -81 130 -39 63 -80 129 -90 147
-10 17 -33 56 -52 85 -19 29 -53 85 -77 123 -24 39 -58 93 -75 120 -29 46
-1041 1675 -1068 1719 -7 11 -42 68 -79 128 -38 60 -68 111 -68 114 0 3 -5 10
-10 17 -11 12 -33 47 -180 287 -46 74 -101 161 -122 193 -21 32 -38 60 -38 63
0 3 -8 17 -19 32 -10 15 -56 88 -102 162 -45 74 -97 158 -114 185 -74 118
-619 996 -875 1410 -95 154 -183 296 -195 315 -13 19 -97 154 -187 300 -371
599 -950 1530 -1087 1750 -80 129 -149 242 -154 250 -4 8 -25 42 -46 75 -22
33 -58 92 -82 130 -23 39 -115 187 -204 330 -89 143 -198 319 -243 392 l-81
131 45 73 c25 41 49 81 53 89 5 8 99 166 208 350 109 184 203 343 208 353 6 9
100 168 210 353 110 185 209 352 221 373 12 20 65 110 119 201 54 91 132 222
174 293 42 70 90 152 106 181 17 29 35 60 41 67 6 8 35 56 65 107 30 52 59
101 64 110 6 10 27 46 48 82 21 36 42 72 47 80 31 50 179 300 215 363 10 18
231 390 627 1057 119 201 242 408 273 460 68 117 106 181 265 449 230 389 252
426 270 457 10 17 38 64 62 105 25 41 103 173 175 294 192 324 418 705 442
745 12 19 24 43 27 53 4 9 10 17 15 17 5 0 9 4 9 9 0 5 34 67 76 137 42 71
170 287 284 479 114 193 279 472 367 620 89 149 169 285 179 303 11 17 91 152
178 299 87 148 187 315 221 373 34 58 91 155 127 215 35 61 71 121 79 135 8
14 16 27 19 30 3 3 12 18 20 33 14 26 140 239 448 757 73 124 171 288 216 365
46 77 149 251 230 387 80 135 148 252 151 260 4 11 -281 13 -1709 13 l-1715 0
-38 -65 c-21 -35 -49 -85 -63 -110 -14 -25 -33 -56 -41 -70 -9 -14 -76 -128
-149 -255 -73 -126 -154 -266 -180 -310 -111 -189 -412 -706 -425 -730 -6 -11
-36 -63 -66 -115 -31 -52 -137 -234 -237 -405 -99 -170 -188 -324 -198 -342
-11 -17 -37 -62 -58 -100 -46 -80 -84 -145 -160 -271 -31 -52 -56 -97 -56
-100 0 -4 -14 -27 -30 -52 -17 -25 -37 -58 -45 -75 -8 -16 -24 -44 -34 -61
-15 -25 -599 -1026 -681 -1169 -25 -43 -205 -352 -355 -610 -71 -121 -143
-245 -160 -275 -17 -30 -70 -120 -116 -200 -47 -80 -177 -302 -289 -495 -112
-192 -257 -442 -323 -555 -66 -113 -131 -225 -145 -250 -14 -25 -35 -61 -47
-80 -12 -19 -33 -55 -47 -80 -25 -45 -265 -459 -299 -515 -10 -16 -36 -61 -58
-100 -57 -98 -88 -151 -129 -220 -19 -33 -48 -85 -65 -115 -16 -30 -36 -62
-43 -71 -8 -8 -14 -19 -14 -22 0 -4 -18 -36 -40 -72 -22 -36 -40 -67 -40 -69
0 -2 -19 -35 -42 -72 -37 -62 -71 -120 -130 -224 -11 -19 -39 -66 -61 -105
-23 -38 -48 -82 -57 -97 -8 -15 -87 -150 -175 -301 l-160 -275 -3 4516 -2
4517 -1360 0 c-748 0 -1364 -1 -1370 -3z"/>
</g>
</svg>
